<svg xmlns="http://www.w3.org/2000/svg" width="25.593" height="25.15" viewBox="0 0 25.593 25.15">
  <defs>
    <style>
      .cls-1 {
        fill: #111;
        fill-rule: evenodd;
      }
    </style>
  </defs>
  <path id="Instagram_1" data-name="Instagram 1" class="cls-1" d="M971.773,6224.2h-1.6a1.582,1.582,0,0,0-1.6,1.57v22a1.582,1.582,0,0,0,1.6,1.57h22.381a1.582,1.582,0,0,0,1.6-1.57v-22a1.582,1.582,0,0,0-1.6-1.57H971.773Zm9.593,9.42a3.145,3.145,0,1,1-3.2,3.15A3.181,3.181,0,0,1,981.366,6233.62Zm9.592,12.58H971.773v-9.43h3.2a6.4,6.4,0,0,0,12.79,0h3.2v9.43Zm0-14.15h-4.8v-4.71h4.8v4.71Z" transform="translate(-968.563 -6224.19)"/>
</svg>
