<svg xmlns="http://www.w3.org/2000/svg" width="19.156" height="25.156" viewBox="0 0 19.156 25.156">
  <defs>
    <style>
      .cls-1 {
        fill: #111;
        fill-rule: evenodd;
      }
    </style>
  </defs>
  <path id="Pinterest_1" data-name="Pinterest 1" class="cls-1" d="M8.5,17.233c-0.649,3.463-1.439,6.78-3.782,8.515C3.99,20.517,5.777,16.587,6.605,12.413c-1.414-2.423.17-7.3,3.151-6.1,3.667,1.478-3.176,9.016,1.418,9.957,4.8,0.983,6.756-8.486,3.781-11.563-4.3-4.448-12.511-.1-11.5,6.264C3.7,12.526,5.276,13,4.084,15.148c-2.75-.625-3.571-2.837-3.465-5.786C0.788,4.536,4.871,1.154,8.968.688,14.149,0.1,19.01,2.627,19.681,7.595,20.437,13.2,17.344,19.279,11.8,18.842,10.3,18.722,9.671,17.962,8.5,17.233Z" transform="translate(-0.625 -0.594)"/>
</svg>
