<svg xmlns="http://www.w3.org/2000/svg" width="25.625" height="20.5" viewBox="0 0 25.625 20.5">
  <defs>
    <style>
      .cls-1 {
        fill: #111;
        fill-rule: evenodd;
      }
    </style>
  </defs>
  <path id="Twitter_1" data-name="Twitter 1" class="cls-1" d="M713.726,6229.4a10.534,10.534,0,0,1-3.022.81,5.2,5.2,0,0,0,2.314-2.86,10.46,10.46,0,0,1-3.343,1.26,5.282,5.282,0,0,0-3.839-1.64,5.222,5.222,0,0,0-5.263,5.18,5.137,5.137,0,0,0,.136,1.18,15.047,15.047,0,0,1-10.846-5.41,5.081,5.081,0,0,0-.71,2.6,5.429,5.429,0,0,0,2.625,4.31c-0.862-.03-2.1-0.26-2.1-0.65v0.07a4.961,4.961,0,0,0,3.934,5.07,6.4,6.4,0,0,1-1.529.18,5.324,5.324,0,0,1-1.061-.1,5.222,5.222,0,0,0,4.878,3.6,10.764,10.764,0,0,1-6.551,2.21,10.563,10.563,0,0,1-1.265-.07,15.042,15.042,0,0,0,8.061,2.32,14.73,14.73,0,0,0,14.969-14.71c0-.23-0.007-0.45-0.017-0.67A10.55,10.55,0,0,0,713.726,6229.4Z" transform="translate(-688.094 -6226.97)"/>
</svg>
